<?xml version="1.0" encoding="utf-8"?>
<!-- Generator: Adobe Illustrator 23.0.5, SVG Export Plug-In . SVG Version: 6.00 Build 0)  -->
<svg version="1.1" id="Layer_1" xmlns="http://www.w3.org/2000/svg" xmlns:xlink="http://www.w3.org/1999/xlink" x="0px" y="0px"
	 viewBox="0 0 4743.4 3162.3" style="enable-background:new 0 0 4743.4 3162.3;" xml:space="preserve">
<style type="text/css">
	.st0{fill-rule:evenodd;clip-rule:evenodd;fill:#FFFFFF;stroke:#D4D7FF;stroke-width:5.9293;stroke-miterlimit:2.6131;}
	.st1{fill-rule:evenodd;clip-rule:evenodd;fill:#E4F1F8;}
	.st2{fill-rule:evenodd;clip-rule:evenodd;fill:#3EA4EB;}
	.st3{fill-rule:evenodd;clip-rule:evenodd;fill:#3C9EE6;}
	.st4{fill-rule:evenodd;clip-rule:evenodd;fill:#CBEAFF;}
	.st5{fill-rule:evenodd;clip-rule:evenodd;fill:#A7CAF6;}
	.st6{fill-rule:evenodd;clip-rule:evenodd;fill:#20385E;}
	.st7{fill-rule:evenodd;clip-rule:evenodd;fill:#2B4A7D;}
	.st8{fill-rule:evenodd;clip-rule:evenodd;fill:#7F9DD0;}
	.st9{fill-rule:evenodd;clip-rule:evenodd;fill:#4D6895;}
	.st10{fill-rule:evenodd;clip-rule:evenodd;fill:#FFFFFF;}
	.st11{fill-rule:evenodd;clip-rule:evenodd;fill:#834BEF;}
	.st12{fill-rule:evenodd;clip-rule:evenodd;fill:#C3D4F1;}
	.st13{fill-rule:evenodd;clip-rule:evenodd;fill:#B1C8EF;}
	.st14{fill-rule:evenodd;clip-rule:evenodd;fill:#D8E7FF;}
	.st15{fill-rule:evenodd;clip-rule:evenodd;fill:#FA394B;}
	.st16{fill-rule:evenodd;clip-rule:evenodd;fill:#FAD67F;}
	.st17{fill-rule:evenodd;clip-rule:evenodd;fill:#AEC7EF;}
	.st18{fill-rule:evenodd;clip-rule:evenodd;fill:#C3D6D2;}
	.st19{fill-rule:evenodd;clip-rule:evenodd;fill:#221E54;}
	.st20{fill-rule:evenodd;clip-rule:evenodd;fill:#D6C5FA;}
	.st21{fill-rule:evenodd;clip-rule:evenodd;fill:#FF5668;}
	.st22{fill-rule:evenodd;clip-rule:evenodd;fill:#2B1710;}
	.st23{fill-rule:evenodd;clip-rule:evenodd;fill:#FF8662;}
	.st24{fill-rule:evenodd;clip-rule:evenodd;fill:#693E2F;}
	.st25{fill-rule:evenodd;clip-rule:evenodd;fill:#FAB453;}
	.st26{fill-rule:evenodd;clip-rule:evenodd;fill:#FFCB86;}
	.st27{fill-rule:evenodd;clip-rule:evenodd;fill:#FF7A52;}
	.st28{fill-rule:evenodd;clip-rule:evenodd;fill:#FF7557;}
	.st29{fill-rule:evenodd;clip-rule:evenodd;fill:#1A3A6E;}
	.st30{fill-rule:evenodd;clip-rule:evenodd;fill:#5E84C6;}
	.st31{fill-rule:evenodd;clip-rule:evenodd;fill:#B6D8F8;}
</style>
<rect class="st0" width="4743.4" height="3162.3"/>
<path class="st1" d="M2783.5,252.5c-999.2-93.3-1070.6,474.9-1202.3,798.8c-49.4,120.8-134.5,211.4-222.3,277.2
	c-112.5,85.1-247.1,137.3-387,153.7C71.4,1603.1,216.9,2819.1,557.2,2920.7h3593.2C5034.4,1235.3,3779.9,343.1,2783.5,252.5z"/>
<path class="st1" d="M1059.6,521.6c-518.8,2.7-658.8,513.3-376.1,798.8C1070.6,1718.4,2141.1,516.1,1059.6,521.6z"/>
<path class="st2" d="M3757.9,2885c870.2-318.4,529.8-1765.1,529.8-1765.1c-911.4,568.2-776.8,1726.6-776.8,1726.6L3757.9,2885z"/>
<path class="st3" d="M3708.5,2668.2c-22,65.9-43.9,131.8-65.9,200.4c-43.9-8.2-87.8-13.7-131.8-19.2c0,0-90.6-798.8,398-1394.5
	c107.1-131.8,236.1-241.6,378.8-332.1C4287.7,1120,3950.1,1962.7,3708.5,2668.2z"/>
<path class="st4" d="M3821.1,2797.2c214.1-543.5,411.8-664.3,719.2-724.7c76.9,656.1-529.8,812.5-529.8,812.5L3821.1,2797.2z"/>
<path class="st5" d="M4290.5,2736.8c-137.3,112.5-280,148.2-280,148.2c-27.5-13.7-54.9-24.7-82.4-38.4
	c203.1-258,406.3-516.1,609.4-776.8C4581.5,2410.1,4438.7,2616,4290.5,2736.8z"/>
<path class="st2" d="M947,2863.1c-713.7-260.8-433.7-1449.4-433.7-1449.4c746.6,466.7,639.6,1416.4,639.6,1416.4L947,2863.1z"/>
<path class="st3" d="M988.2,2684.6c19.2,54.9,38.4,109.8,54.9,164.7c35.7-5.5,71.4-11,107.1-16.5c0,0,74.1-656.1-326.7-1144.7
	c-87.8-107.1-192.2-200.4-312.9-271.8C513.3,1413.7,790.6,2108.2,988.2,2684.6z"/>
<path class="st4" d="M905.9,2808.2c-208.6-529.8-400.8-647.8-702.7-708.2C129,2742.3,719.2,2896,719.2,2896L905.9,2808.2z"/>
<path class="st5" d="M447.4,2750.5C581.9,2860.3,719.2,2896,719.2,2896c27.5-11,52.2-24.7,79.6-35.7
	c-200.4-252.5-398-505.1-598.4-757.6C162,2432.1,302,2632.5,447.4,2750.5z"/>
<polygon class="st6" points="2533.7,2761.5 2031.3,2761.5 2099.9,2525.4 2602.3,2525.4 "/>
<polygon class="st7" points="2577.6,2761.5 2075.2,2761.5 2143.9,2525.4 2646.2,2525.4 "/>
<path class="st7" d="M3384.6,2594.1H1271c-27.5,0-52.2-22-54.9-49.4l-140-1372.5c-5.5-60.4,41.2-112.5,101.6-112.5h2113.7
	c27.5,0,52.2,22,54.9,49.4l140,1372.5C3491.7,2544.6,3445,2594.1,3384.6,2594.1z"/>
<path class="st8" d="M3469.7,2594.1H1356c-27.5,0-52.2-22-54.9-49.4l-140-1372.5c-5.5-60.4,41.2-112.5,101.6-112.5h2113.7
	c27.5,0,52.2,22,54.9,49.4l140,1372.5C3576.8,2544.6,3527.4,2594.1,3469.7,2594.1z"/>
<path class="st4" d="M1347.8,2470.5c-19.2,0-32.9-13.7-35.7-32.9l-131.8-1265.5c-2.7-22,5.5-46.7,19.2-63.1
	c16.5-16.5,38.4-27.5,60.4-27.5h2113.7c19.2,0,32.9,13.7,35.7,32.9l131.8,1268.2c2.7,22-5.5,46.7-19.2,63.1
	c-16.5,16.5-38.4,27.5-60.4,27.5H1347.8C1347.8,2473.3,1347.8,2470.5,1347.8,2470.5z"/>
<path class="st9" d="M2893.3,2808.2h-925.1c0-52.2,43.9-96.1,96.1-96.1h732.9C2849.3,2712.1,2893.3,2756,2893.3,2808.2z"/>
<path class="st2" d="M1850.2,1062.3h-425.5l-19.2-189.4c-5.5-60.4,41.2-112.5,101.6-112.5l0,0h334.9L1850.2,1062.3z"/>
<path class="st10" d="M3063.5,2294.8L2918,886.6c-8.2-71.4-68.6-129-142.7-129H1509.8c74.1,0,134.5,54.9,142.7,129L1798,2294.8
	c5.5,57.6,54.9,98.8,109.8,98.8H3176C3118.4,2396.4,3068.9,2352.5,3063.5,2294.8z"/>
<path class="st2" d="M3288.5,2275.6l-2.7-49.4H2017.6l2.7,49.4c5.5,65.9-46.7,120.8-112.5,120.8H3176
	C3239.1,2396.4,3291.3,2341.5,3288.5,2275.6z"/>
<path class="st2" d="M2327.8,974.5h-480.4c-24.7,0-43.9-19.2-43.9-43.9c0-24.7,19.2-43.9,43.9-43.9h483.1
	c24.7,0,43.9,19.2,43.9,43.9C2371.7,952.5,2352.5,974.5,2327.8,974.5z"/>
<path class="st11" d="M2767,1150.2h-875.7c-24.7,0-43.9-19.2-43.9-43.9c0-24.7,19.2-43.9,43.9-43.9h872.9
	c24.7,0,43.9,19.2,43.9,43.9C2810.9,1131,2791.7,1150.2,2767,1150.2z"/>
<rect x="1501.5" y="1290.2" class="st12" width="549" height="485.9"/>
<rect x="1540" y="1257.2" class="st4" width="549" height="485.9"/>
<rect x="2607.8" y="1754.1" class="st2" width="636.8" height="389.8"/>
<path class="st10" d="M3096.4,1841.9h-203.1c-11,0-19.2-8.2-19.2-19.2c0-11,8.2-19.2,19.2-19.2h203.1c11,0,19.2,8.2,19.2,19.2
	C3115.6,1833.7,3104.6,1841.9,3096.4,1841.9z"/>
<path class="st10" d="M3184.2,1965.4h-291c-11,0-19.2-8.2-19.2-19.2c0-11,8.2-19.2,19.2-19.2h291c11,0,19.2,8.2,19.2,19.2
	C3203.5,1957.2,3195.2,1965.4,3184.2,1965.4z"/>
<path class="st10" d="M3184.2,2086.2h-507.8c-11,0-19.2-8.2-19.2-19.2c0-11,8.2-19.2,19.2-19.2h507.8c11,0,19.2,8.2,19.2,19.2
	S3195.2,2086.2,3184.2,2086.2z"/>
<path class="st13" d="M2561.1,1309.4h-329.4c-13.7,0-24.7-11-24.7-24.7c0-13.7,11-24.7,24.7-24.7h329.4c13.7,0,24.7,11,24.7,24.7
	C2585.8,1298.4,2574.8,1309.4,2561.1,1309.4z"/>
<path class="st13" d="M2426.6,1902.3h-540.8c-13.7,0-24.7-11-24.7-24.7c0-13.7,11-24.7,24.7-24.7h540.8c13.7,0,24.7,11,24.7,24.7
	C2451.3,1891.3,2440.3,1902.3,2426.6,1902.3z"/>
<path class="st13" d="M2462.3,2124.7h-540.8c-13.7,0-24.7-11-24.7-24.7c0-13.7,11-24.7,24.7-24.7h540.8c13.7,0,24.7,11,24.7,24.7
	C2487,2113.7,2476,2124.7,2462.3,2124.7z"/>
<path class="st13" d="M2879.5,1498.8h-620.4c-13.7,0-24.7-11-24.7-24.7c0-13.7,11-24.7,24.7-24.7h620.4c13.7,0,24.7,11,24.7,24.7
	C2904.2,1487.8,2893.3,1498.8,2879.5,1498.8z"/>
<path class="st13" d="M2923.5,1696.4h-620.4c-13.7,0-24.7-11-24.7-24.7l0,0c0-13.7,11-24.7,24.7-24.7h620.4
	c13.7,0,24.7,11,24.7,24.7l0,0C2948.2,1685.5,2937.2,1696.4,2923.5,1696.4z"/>
<path class="st11" d="M982.7,2160.3l-74.1-137.3H675.3v137.3v601.2c0,24.7,19.2,43.9,43.9,43.9h793.3c24.7,0,43.9-19.2,43.9-43.9
	V2207c0-24.7-19.2-43.9-43.9-43.9H982.7V2160.3z"/>
<path class="st14" d="M870.2,2322.3H760.4c-8.2,0-16.5-8.2-16.5-16.5v-49.4c0-8.2,8.2-16.5,16.5-16.5h109.8
	c8.2,0,16.5,8.2,16.5,16.5v49.4C886.6,2316.8,881.2,2322.3,870.2,2322.3z"/>
<path class="st14" d="M1007.4,2473.3H760.4c-8.2,0-16.5-8.2-16.5-16.5v-49.4c0-8.2,8.2-16.5,16.5-16.5h247.1
	c8.2,0,16.5,8.2,16.5,16.5v49.4C1023.9,2465,1015.7,2473.3,1007.4,2473.3z"/>
<path class="st14" d="M1312.1,2322.3H947c-8.2,0-16.5-8.2-16.5-16.5v-49.4c0-8.2,8.2-16.5,16.5-16.5h365.1c8.2,0,16.5,8.2,16.5,16.5
	v49.4C1325.9,2316.8,1320.4,2322.3,1312.1,2322.3z"/>
<path class="st15" d="M4005,2341.5c0-60.4,49.4-109.8,109.8-109.8c60.4,0,109.8,49.4,109.8,109.8s-49.4,109.8-109.8,109.8
	C4054.4,2451.3,4005,2401.9,4005,2341.5L4005,2341.5z M3925.4,2341.5c0,104.3,85.1,189.4,189.4,189.4
	c104.3,0,189.4-85.1,189.4-189.4s-85.1-189.4-189.4-189.4C4010.5,2152.1,3925.4,2234.5,3925.4,2341.5z"/>
<path class="st16" d="M3686.6,2810.9h90.6c153.7,0,277.2-123.5,277.2-277.2v-521.6h-645.1v521.6
	C3409.3,2687.4,3535.6,2810.9,3686.6,2810.9z"/>
<rect x="3859.5" y="2009.4" class="st17" width="13.7" height="222.3"/>
<rect x="3793.6" y="2231.7" class="st8" width="145.5" height="140"/>
<path class="st4" d="M3499.9,2876.8c-109.8-280-211.4-343.1-373.3-373.3c-38.4,337.6,274.5,420,274.5,420L3499.9,2876.8z"/>
<path class="st5" d="M3255.6,2843.9c71.4,57.6,145.5,76.9,145.5,76.9c13.7-5.5,27.5-13.7,41.2-19.2
	c-104.3-134.5-211.4-266.3-315.7-400.8C3107.4,2676.4,3181.5,2783.5,3255.6,2843.9z"/>
<path class="st18" d="M4145,2953.7H439.2c-30.2,0-52.2-24.7-52.2-52.2v-38.4c0-30.2,24.7-52.2,52.2-52.2H4145
	c30.2,0,52.2,24.7,52.2,52.2v38.4C4199.9,2931.7,4175.2,2953.7,4145,2953.7z"/>
<polygon class="st10" points="1040.4,1932.5 1076.1,2058.8 2174.1,1745.8 2234.5,1660.7 2138.4,1619.6 "/>
<path class="st7" d="M2174.1,1745.8c-38.4-8.2-27.5-43.9-27.5-43.9c-38.4-38.4-8.2-82.4-8.2-82.4l-1098,312.9l35.7,126.3
	L2174.1,1745.8z"/>
<path class="st19" d="M2174.1,1745.8l-1098,312.9l-13.7-49.4l1084.3-307.4C2146.6,1701.9,2135.6,1737.6,2174.1,1745.8z"/>
<path class="st19" d="M2234.5,1660.7l-27.5,41.2c-8.2-5.5-8.2-8.2-8.2-8.2c-13.7-2.7,2.7-22,2.7-22c-16.5-11-5.5-24.7-5.5-24.7
	L2234.5,1660.7z"/>
<path class="st20" d="M1979.2,1690.9l5.5,16.5c0,5.5,5.5,5.5,11,5.5l79.6-22c5.5,0,5.5-5.5,5.5-11l-5.5-16.5c0-5.5-5.5-5.5-11-5.5
	l-79.6,22C1981.9,1682.7,1979.2,1685.5,1979.2,1690.9z"/>
<path class="st20" d="M1938,1701.9l5.5,16.5c0,5.5,5.5,5.5,11,5.5l16.5-5.5c5.5,0,5.5-5.5,5.5-11l-5.5-16.5c0-5.5-5.5-5.5-11-5.5
	l-16.5,5.5C1940.7,1693.7,1938,1696.4,1938,1701.9z"/>
<rect x="990.9" y="1924.4" transform="matrix(0.9616 -0.2746 0.2746 0.9616 -509.0428 363.2961)" class="st2" width="104.3" height="151"/>
<path class="st21" d="M974.5,1951.7l35.7,126.3l-101.6,27.5c-16.5,5.5-35.7-5.5-41.2-22l-19.2-63.1c-5.5-16.5,5.5-35.7,22-41.2
	L974.5,1951.7z"/>
<path class="st22" d="M1427.4,1636c-32.9-57.6,0-79.6,0-79.6c8.2-22,76.9-27.5,79.6-22c2.7,5.5-2.7,11-2.7,11
	c16.5,13.7,13.7,35.7,13.7,35.7l-46.7,65.9l-32.9,2.7L1427.4,1636z"/>
<path class="st23" d="M1454.9,1685.5c-2.7,11-8.2,22-8.2,24.7c19.2,24.7,63.1,13.7,68.6,11c2.7-2.7,16.5-5.5,13.7-11
	c-11-8.2-5.5-27.5-5.5-27.5c5.5,0,22-5.5,24.7-24.7c2.7-19.2-11-49.4-19.2-63.1c-8.2-13.7-19.2-46.7-38.4-49.4
	c0,11-46.7,16.5-46.7,16.5c11,8.2,5.5,19.2-2.7,30.2c-8.2,11-2.7,22,5.5,27.5c8.2,5.5,13.7,8.2,11,13.7c-11,8.2-24.7,11-24.7,11
	l8.2,8.2C1454.9,1658,1457.6,1671.7,1454.9,1685.5z"/>
<path class="st23" d="M1567.4,2703.9l8.2,46.7c-8.2,24.7-5.5,57.6-5.5,57.6h186.7c-19.2-38.4-107.1-41.2-115.3-57.6
	c-8.2-19.2-13.7-71.4-13.7-71.4L1567.4,2703.9z"/>
<path class="st22" d="M1608.6,2753.3c0-5.5,5.5-30.2,22-35.7c2.7,13.7,5.5,24.7,8.2,32.9c8.2,19.2,96.1,22,118,57.6h-186.7
	c0,0-5.5-32.9,5.5-57.6C1572.9,2750.5,1608.6,2764.2,1608.6,2753.3z"/>
<path class="st24" d="M1748.6,2799.9c2.7,2.7,2.7,5.5,5.5,8.2h-186.7c0,0,0-2.7,0-8.2H1748.6z"/>
<path class="st24" d="M1625.1,2756L1625.1,2756c0,0,2.7-8.2,8.2-11c2.7,0,5.5,0,8.2,0c0,0,0,0,2.7,0c0,0,0,0,0-2.7
	c-2.7,0-5.5,0-8.2,0C1625.1,2747.8,1622.3,2756,1625.1,2756C1622.3,2756,1622.3,2756,1625.1,2756L1625.1,2756z"/>
<path class="st24" d="M1641.5,2769.7L1641.5,2769.7c0,0,2.7-8.2,8.2-11c2.7,0,5.5,0,8.2,0c0,0,0,0,2.7,0c0,0,0,0,0-2.7
	c-2.7,0-5.5,0-8.2,0C1644.3,2758.8,1641.5,2767,1641.5,2769.7L1641.5,2769.7L1641.5,2769.7z"/>
<path class="st24" d="M1671.7,2778L1671.7,2778c0,0,2.7-8.2,8.2-11c2.7,0,5.5,0,8.2,0c0,0,0,0,2.7,0c0,0,0,0,0-2.7
	c-2.7,0-5.5,0-8.2,0C1671.7,2767,1669,2775.2,1671.7,2778C1669,2778,1669,2778,1671.7,2778L1671.7,2778z"/>
<path class="st23" d="M1323.1,2703.9l8.2,46.7c-8.2,24.7-5.5,57.6-5.5,57.6h186.7c-19.2-38.4-107.1-41.2-115.3-57.6
	c-8.2-19.2-13.7-71.4-13.7-71.4L1323.1,2703.9z"/>
<path class="st22" d="M1367,2753.3c0-5.5,5.5-30.2,22-35.7c2.7,13.7,5.5,24.7,8.2,32.9c8.2,19.2,96.1,22,115.3,57.6h-186.7
	c0,0-5.5-32.9,5.5-57.6C1331.3,2750.5,1364.3,2764.2,1367,2753.3z"/>
<path class="st24" d="M1507,2799.9c2.7,2.7,2.7,5.5,5.5,8.2h-186.7c0,0,0-2.7,0-8.2H1507z"/>
<path class="st24" d="M1383.5,2756L1383.5,2756c0,0,2.7-8.2,8.2-11c2.7,0,5.5,0,8.2,0c0,0,0,0,2.7,0c0,0,0,0,0-2.7
	c-2.7,0-5.5,0-8.2,0C1383.5,2747.8,1380.8,2756,1383.5,2756C1380.8,2756,1380.8,2756,1383.5,2756L1383.5,2756z"/>
<path class="st24" d="M1400,2769.7L1400,2769.7c0,0,2.7-8.2,8.2-11c2.7,0,5.5,0,8.2,0c0,0,0,0,2.7,0c0,0,0,0,0-2.7
	c-2.7,0-5.5,0-8.2,0C1402.7,2758.8,1400,2767,1400,2769.7L1400,2769.7L1400,2769.7z"/>
<path class="st24" d="M1430.2,2778L1430.2,2778c0,0,2.7-8.2,8.2-11c2.7,0,5.5,0,8.2,0c0,0,0,0,2.7,0c0,0,0,0,0-2.7
	c-2.7,0-5.5,0-8.2,0C1430.2,2767,1427.4,2775.2,1430.2,2778C1427.4,2778,1427.4,2778,1430.2,2778
	C1427.4,2778,1427.4,2778,1430.2,2778z"/>
<path class="st7" d="M1649.8,2053.3c49.4,194.9,27.5,623.1,16.5,683.5h-118c11-140-49.4-455.7-49.4-455.7
	c-16.5,249.8-68.6,452.9-68.6,452.9h-131.8l68.6-675.3l140-46.7L1649.8,2053.3z"/>
<path class="st25" d="M1386.2,1737.6c-96.1,98.8-159.2,280,8.2,310.2C1559.2,2075.2,1386.2,1737.6,1386.2,1737.6z"/>
<path class="st26" d="M1534.5,1710.2c27.5,5.5,49.4,19.2,49.4,19.2c46.7,71.4,65.9,334.9,65.9,334.9l-285.5,5.5
	c0-19.2-2.7-307.4,19.2-332.1c24.7-22,60.4-30.2,60.4-30.2S1504.3,1707.4,1534.5,1710.2z"/>
<path class="st23" d="M1839.2,1877.6c2.7-5.5,11-43.9,13.7-49.4c2.7-5.5,35.7-32.9,38.4-35.7c2.7-2.7,30.2-11,32.9-11
	c5.5,5.5,0,13.7-5.5,19.2c-8.2,5.5-16.5,11-19.2,13.7c0,0-5.5,8.2-2.7,11c2.7,0,11,19.2,13.7,27.5c2.7,5.5,0,16.5-5.5,24.7
	c-5.5,8.2-46.7,35.7-46.7,35.7L1839.2,1877.6z"/>
<path class="st25" d="M1583.9,1729.4c27.5,16.5,57.6,76.9,82.4,115.3c24.7,38.4,109.8,71.4,172.9,8.2c2.7,2.7,19.2,60.4,19.2,60.4
	c-13.7,41.2-93.3,101.6-192.2,90.6c-98.8-13.7-118-118-120.8-148.2C1542.7,1800.7,1556.4,1740.4,1583.9,1729.4z"/>
<path class="st27" d="M1454.9,1647c0,8.2-5.5,13.7-13.7,13.7c-8.2,0-13.7-5.5-13.7-13.7c0-8.2,5.5-13.7,13.7-13.7
	C1449.4,1633.3,1454.9,1638.8,1454.9,1647z"/>
<path class="st28" d="M1515.3,1682.7c-22,0-38.4-13.7-38.4-13.7C1512.5,1712.9,1523.5,1715.6,1515.3,1682.7z"/>
<path class="st22" d="M3486.2,1614.1c16.5-19.2,22-24.7,16.5-41.2c-5.5-16.5-8.2-30.2,8.2-46.7c16.5-16.5,11-30.2,8.2-43.9
	l93.3-43.9c19.2,2.7,30.2,19.2,30.2,43.9c0,22,2.7,38.4,22,49.4s24.7,30.2,19.2,46.7s11,32.9,24.7,38.4
	c13.7,5.5,19.2,24.7,16.5,35.7c-2.7,13.7,16.5,13.7,16.5,32.9c0,16.5-32.9,13.7-32.9,13.7c-22,8.2-233.3-16.5-236.1-32.9
	C3469.7,1652.5,3472.5,1633.3,3486.2,1614.1z"/>
<path class="st23" d="M3228.2,2454.1c-5.5-11-11-27.5-8.2-54.9c0-11,2.7-22,5.5-35.7c0-8.2,2.7-13.7,2.7-22l-46.7,13.7
	c0,8.2,2.7,16.5,2.7,24.7c2.7,16.5,0,30.2-2.7,46.7c0,5.5-2.7,8.2-2.7,11c-2.7,8.2-30.2,32.9-43.9,57.6c0,2.7-30.2,8.2-24.7,13.7
	c2.7,2.7,52.2,5.5,57.6,0s19.2-19.2,32.9-22v24.7h22c0,0,2.7-22,2.7-27.5C3225.4,2473.3,3233.6,2465,3228.2,2454.1z"/>
<path class="st22" d="M3134.8,2489.7c8.2,0,19.2,2.7,22,2.7c5.5-2.7,35.7-38.4,68.6-49.4c0,2.7,2.7,8.2,2.7,11
	c5.5,11-2.7,19.2-2.7,24.7c0,5.5-2.7,27.5-2.7,27.5h-22v-24.7c-13.7,2.7-27.5,16.5-32.9,22c-5.5,5.5-54.9,2.7-57.6,0
	C3104.6,2498,3132.1,2495.2,3134.8,2489.7z"/>
<path class="st29" d="M3189.7,2047.8c41.2-76.9,162-140,183.9-148.2c79.6-27.5,156.5-76.9,156.5-76.9l41.2-8.2l16.5,120.8
	l-54.9,49.4c-27.5,68.6-205.9,76.9-222.3,118c-16.5,41.2-68.6,310.2-68.6,310.2h-115.3C3126.6,2412.9,3148.6,2124.7,3189.7,2047.8z"
	/>
<path class="st25" d="M3521.9,1592.1c-49.4,22-104.3,123.5-129,156.5c-24.7,32.9-76.9,49.4-76.9,49.4s76.9,32.9,96.1,35.7
	c87.8-32.9,120.8-118,120.8-118L3521.9,1592.1z"/>
<path class="st23" d="M3373.6,2454.1c-5.5-11-11-27.5-8.2-54.9c0-11,2.7-22,5.5-35.7c0-8.2,2.7-13.7,2.7-22l-46.7,13.7
	c0,8.2,2.7,16.5,2.7,24.7c2.7,16.5,0,30.2-2.7,46.7c0,5.5-2.7,8.2-2.7,11c-2.7,8.2-30.2,32.9-43.9,57.6c0,2.7-30.2,8.2-24.7,13.7
	c2.7,2.7,52.2,5.5,57.6,0s19.2-19.2,32.9-22v24.7h22c0,0,2.7-22,2.7-27.5C3370.9,2473.3,3379.1,2465,3373.6,2454.1z"/>
<path class="st22" d="M3280.3,2489.7c8.2,0,19.2,2.7,22,2.7c5.5-2.7,35.7-38.4,68.6-49.4c0,2.7,2.7,8.2,2.7,11
	c5.5,11-2.7,19.2-2.7,24.7c0,5.5-2.7,27.5-2.7,27.5h-22v-24.7c-13.7,2.7-27.5,16.5-32.9,22c-5.5,5.5-54.9,2.7-57.6,0
	C3250.1,2498,3277.6,2495.2,3280.3,2489.7z"/>
<path class="st26" d="M3552.1,1586.6l-30.2,5.5c-2.7,41.2-41.2,85.1-41.2,107.1c-2.7,22,27.5,57.6,38.4,76.9c11,22,11,41.2,11,41.2
	h123.5c0-5.5,30.2-145.5,27.5-178.4c-2.7-35.7-46.7-46.7-46.7-46.7S3587.8,1592.1,3552.1,1586.6z"/>
<path class="st7" d="M3650.9,1825.4c0,0,54.9,93.3,27.5,162c-27.5,68.6-205.9,76.9-222.3,118c-16.5,41.2-68.6,310.2-68.6,310.2
	h-115.3c0,0,22-288.2,63.1-365.1c41.2-76.9,164.7-134.5,183.9-148.2c16.5-13.7,35.7-79.6,35.7-79.6L3650.9,1825.4z"/>
<rect x="3527.4" y="1814.5" class="st22" width="131.8" height="11"/>
<rect x="3593.2" y="1809" class="st7" width="5.5" height="19.2"/>
<rect x="3637.2" y="1809" class="st7" width="5.5" height="19.2"/>
<path class="st23" d="M3736,1737.6c0,0,16.5,57.6,16.5,109.8s-24.7,123.5-24.7,131.8c0,22-19.2,32.9-32.9,30.2
	c-13.7-2.7-22-2.7-22,0c-2.7,5.5-11,11-13.7,11c-5.5,2.7-8.2,0-8.2,0c-2.7,2.7-5.5,0-5.5,0s0-11,0-13.7s2.7-8.2,2.7-8.2
	s-5.5,5.5-5.5,8.2c0,2.7,0,11-2.7,11c-2.7-8.2-2.7-16.5-2.7-19.2s8.2-16.5,16.5-19.2c8.2,0,35.7,0,38.4-2.7
	c2.7-2.7-5.5-134.5-8.2-145.5c-2.7-11-27.5-82.4-27.5-82.4L3736,1737.6z"/>
<path class="st25" d="M3664.6,1605.8c-41.2,27.5-35.7,90.6-13.7,140c19.2,49.4,35.7,98.8,35.7,194.9c38.4,8.2,54.9,2.7,54.9,2.7
	s30.2-85.1,13.7-170.2C3733.2,1685.5,3697.6,1605.8,3664.6,1605.8z"/>
<polygon class="st8" points="3247.4,1781.5 3472.5,1781.5 3510.9,1946.2 3285.8,1946.2 "/>
<polygon class="st30" points="3239.1,1781.5 3461.5,1781.5 3499.9,1946.2 3277.6,1946.2 "/>
<path class="st8" d="M3362.7,1874.9h27.5v-11c0-8.2-5.5-13.7-13.7-13.7h-27.5v11C3348.9,1869.4,3354.4,1874.9,3362.7,1874.9z"/>
<rect x="3277.6" y="1946.2" class="st30" width="310.2" height="13.7"/>
<path class="st23" d="M3241.9,1872.1c-16.5-11-22-52.2,5.5-60.4c0,2.7,2.7,11,2.7,11s41.2,2.7,41.2,16.5c5.5,5.5,0,13.7,0,13.7
	c0,8.2-16.5,11-16.5,11s11-2.7,11,2.7C3283.1,1872.1,3252.9,1877.6,3241.9,1872.1z"/>
<path class="st22" d="M3596,1545.5c30.2,5.5,46.7-22,38.4-43.9c2.7-43.9-16.5-90.6-85.1-65.9c-32.9,5.5-46.7,49.4-19.2,60.4
	C3568.5,1526.2,3596,1545.5,3596,1545.5z"/>
<path class="st23" d="M3568.5,1561.9c2.7,13.7-5.5,24.7-19.2,24.7c0,57.6,85.1,11,85.1,2.7c0,0-16.5-5.5-22-13.7
	c-5.5-11-8.2-32.9-5.5-65.9c-13.7,2.7-16.5-5.5-16.5-24.7c0-16.5-8.2-46.7-43.9-41.2c-13.7,16.5-19.2,24.7-19.2,46.7
	c0,19.2,0,35.7,0,43.9C3535.6,1545.5,3546.6,1561.9,3568.5,1561.9z"/>
<path class="st27" d="M3607,1515.3c0,5.5,5.5,8.2,11,5.5s8.2-5.5,5.5-11c0-5.5-5.5-8.2-11-5.5
	C3609.7,1507,3604.2,1509.8,3607,1515.3z"/>
<path class="st28" d="M3571.3,1561.9c19.2-5.5,30.2-24.7,30.2-27.5C3587.8,1578.4,3574,1592.1,3571.3,1561.9z"/>
<path class="st22" d="M3549.3,1443.9c5.5,32.9,60.4,38.4,60.4,38.4l-8.2-41.2l-38.4-2.7L3549.3,1443.9z"/>
<path class="st31" d="M2396.4,2950.9c1194.1,0,2160.3,22,2160.3,49.4c0,5.5-54.9,11-153.7,16.5H389.8c-98.8-5.5-153.7-11-153.7-16.5
	C236.1,2972.9,1202.3,2950.9,2396.4,2950.9z"/>
<rect x="1614.1" y="1443.9" class="st2" width="35.7" height="142.7"/>
<rect x="1666.2" y="1471.3" class="st2" width="35.7" height="115.3"/>
<rect x="1718.4" y="1523.5" class="st2" width="35.7" height="63.1"/>
<rect x="1770.5" y="1419.2" class="st2" width="35.7" height="167.4"/>
<rect x="1822.7" y="1347.8" class="st2" width="35.7" height="238.8"/>
<rect x="1874.9" y="1427.4" class="st2" width="35.7" height="159.2"/>
<rect x="1927" y="1378" class="st2" width="35.7" height="205.9"/>
<rect x="1979.2" y="1463.1" class="st2" width="35.7" height="123.5"/>
<rect x="1559.2" y="1600.4" class="st19" width="507.8" height="8.2"/>
</svg>
